<?xml version="1.0" encoding="UTF-8" standalone="no"?>
<!DOCTYPE svg PUBLIC "-//W3C//DTD SVG 1.1//EN" "http://www.w3.org/Graphics/SVG/1.1/DTD/svg11.dtd">
<svg width="100%" height="100%" viewBox="0 0 842 2712" version="1.1" xmlns="http://www.w3.org/2000/svg" xmlns:xlink="http://www.w3.org/1999/xlink" xml:space="preserve" xmlns:serif="http://www.serif.com/" style="fill-rule:evenodd;clip-rule:evenodd;stroke-linejoin:round;stroke-miterlimit:2;">
    <g transform="matrix(1.27855e-16,-2.08803,2.08803,1.27855e-16,-841.546,3202.02)">
        <g transform="matrix(0.627692,0,0,0.795848,29.8984,-420.54)">
            <g transform="matrix(0.749206,0,0,1,26.9643,-698.208)">
                <path d="M731.605,2137.61C749.042,2133.07 757.47,2120.47 765.991,2107.55C780.287,2085.87 788.696,2060.78 797.765,2042.03C805.808,2025.39 815.967,2012.6 826.501,2005.76C838.077,1998.24 851.471,1994.58 865.551,1993.75C890.073,1992.3 911.975,2002.88 914.43,2017.37C916.246,2028.08 906.926,2037.95 892.034,2042.95C888.849,2048.4 880.72,2062.61 875.888,2073.81C864.985,2099.1 851.867,2128.51 830.178,2150.32C810.748,2169.86 784.515,2183.89 750.999,2189.41C726.877,2193.39 702.405,2190.63 678.895,2180.41C658.139,2171.39 636.85,2154.71 617.935,2133.08C557.134,2063.56 511.342,1938.54 511.342,1938.54C506.171,1924.3 524.119,1892.59 545.631,1899.7C568.569,1907.27 593.487,1913.23 598.658,1927.46C598.658,1927.46 640.624,2044.08 697.272,2108.86C705.572,2118.35 714.044,2126.61 722.941,2132.77C725.344,2134.44 729.226,2136.44 731.605,2137.61Z"/>
            </g>
            <g transform="matrix(-0.749206,0,0,1,1330.58,-698.208)">
                <path d="M731.605,2137.61C729.226,2136.44 725.344,2134.44 722.941,2132.77C714.044,2126.61 705.572,2118.35 697.272,2108.86C640.624,2044.08 598.658,1927.46 598.658,1927.46C593.487,1913.23 562.535,1896.61 545.631,1907.2C513.111,1927.59 506.171,1924.3 511.342,1938.54C511.342,1938.54 557.134,2063.56 617.935,2133.08C636.85,2154.71 658.139,2171.39 678.895,2180.41C702.405,2190.63 726.877,2193.39 750.999,2189.41C784.515,2183.89 810.748,2169.86 830.178,2150.32C851.867,2128.51 864.985,2099.1 875.888,2073.81C880.72,2062.61 888.849,2048.4 892.034,2042.95C906.926,2037.95 916.246,2028.08 914.43,2017.37C911.975,2002.88 890.073,1992.3 865.551,1993.75C851.471,1994.58 838.077,1998.24 826.501,2005.76C815.967,2012.6 805.808,2025.39 797.765,2042.03C788.696,2060.78 780.287,2085.87 765.991,2107.55C757.47,2120.47 749.042,2133.07 731.605,2137.61Z"/>
            </g>
        </g>
        <g transform="matrix(1.76848,0,0,2.14175,-116.413,208.342)">
            <path d="M587.023,149.24C587.023,149.24 585.08,187.53 585.08,201.958L585.08,220.271C585.08,223.97 585.681,229.427 586.884,236.641C588.086,243.855 588.687,249.219 588.687,252.734C588.687,255.693 587.207,258.329 584.248,260.642C581.288,262.954 578.329,264.11 575.369,264.11C570.745,264.11 566.86,260.133 563.716,252.179C561.311,246.075 560.108,240.155 560.108,234.421C560.108,234.421 563.9,149.702 563.716,140.638L563.716,120.383C562.606,118.349 562.051,116.591 562.051,115.112C562.051,112.707 563.484,110.533 566.351,108.591C569.219,106.649 571.947,105.678 574.537,105.678C578.421,105.678 582.121,107.481 585.635,111.088C589.15,114.695 590.907,118.534 590.907,122.603C590.907,127.043 590.213,131.436 588.826,135.783C587.439,140.13 586.838,144.615 587.023,149.24Z" style="fill-rule:nonzero;"/>
        </g>
        <g transform="matrix(1,0,0,1,517,258)">
            <path d="M186.52,367.24C186.52,371.56 185.56,377.68 183.64,385.6C181.72,393.52 180.76,399.64 180.76,403.96L180.76,478.12C180.76,482.68 182.08,489.88 184.72,499.72C181.12,505.24 177.16,508 172.84,508C157.72,508 149.44,500.44 148,485.32C145.6,457.24 144.4,436.12 144.4,421.96C144.4,398.2 145.36,378.28 147.28,362.2C147.04,361 146.92,359.8 146.92,358.6C146.92,354.28 150.28,352.12 157,352.12C163,352.12 169,353.32 175,355.72C182.68,358.36 186.52,362.2 186.52,367.24Z" style="fill-rule:nonzero;"/>
            <path d="M335.2,503.32C331.6,508.84 327.16,511.6 321.88,511.6C317.8,511.6 311.08,509.2 301.72,504.4L301.72,500.08C301.72,494.8 301.9,487 302.26,476.68C302.62,466.36 302.8,458.8 302.8,454C302.8,402.64 295.12,376.96 279.76,376.96C275.44,376.96 270.52,380.32 265,387.04C247.96,407.68 239.44,432.52 239.44,461.56C239.44,465.64 240.22,471.7 241.78,479.74C243.34,487.78 244.12,493.84 244.12,497.92C244.12,501.28 242.56,504.04 239.44,506.2C236.32,508.36 232.96,509.44 229.36,509.44C214.96,509.44 207.76,500.32 207.76,482.08L207.76,406.84C207.76,404.92 208,402.1 208.48,398.38C208.96,394.66 209.2,391.84 209.2,389.92C209.2,387.04 208.78,382.84 207.94,377.32C207.1,371.8 206.68,367.72 206.68,365.08C206.68,361.24 208.9,357.58 213.34,354.1C217.78,350.62 221.8,348.88 225.4,348.88C230.68,348.88 236.08,351.88 241.6,357.88L240.52,372.28C249.4,358.12 260.32,351.04 273.28,351.04C281.68,351.04 290.56,353.92 299.92,359.68C309.28,365.44 316.12,371.92 320.44,379.12C330.28,397.36 335.2,421.36 335.2,451.12L335.2,503.32Z" style="fill-rule:nonzero;"/>
            <path d="M536.44,474.16C536.44,486.16 528.28,495.52 511.96,502.24C499.24,507.52 485.92,510.16 472,510.16C435.04,510.16 416.56,489.16 416.56,447.16C416.56,429.88 420.76,410.68 429.16,389.56C439.48,363.64 451.96,350.68 466.6,350.68C479.8,350.68 494.02,356.56 509.26,368.32C524.5,380.08 532.12,392.32 532.12,405.04C532.12,420.88 525.04,433.48 510.88,442.84C498.4,451.24 483.52,455.44 466.24,455.44C462.88,455.44 457.48,453.4 450.04,449.32C451,472.12 457.72,483.52 470.2,483.52C480.76,483.52 491.14,480.52 501.34,474.52C511.54,468.52 518.08,465.52 520.96,465.52C531.28,465.52 536.44,468.4 536.44,474.16ZM497.2,406.12C497.2,400.12 495.46,394.42 491.98,389.02C488.5,383.62 483.88,380.92 478.12,380.92C470.2,380.92 464.08,384.4 459.76,391.36C456.16,397.36 454.36,404.44 454.36,412.6C454.36,417.16 455.92,420.88 459.04,423.76C462.16,426.64 466.12,428.08 470.92,428.08C488.44,428.08 497.2,420.76 497.2,406.12Z" style="fill-rule:nonzero;"/>
            <path d="M649.48,382C649.48,383.68 649.24,386.32 648.76,389.92C643.72,397.12 638.44,400.72 632.92,400.72C628.36,400.72 624.28,398.08 620.68,392.8C620.2,382 616.36,376.6 609.16,376.6C604.84,376.6 599.56,388 593.32,410.8C590.44,420.88 589,434.92 589,452.92C589,469.96 589.84,480.28 591.52,483.88C593.44,488.44 594.4,491.56 594.4,493.24C594.4,497.32 592.54,500.62 588.82,503.14C585.1,505.66 580.96,506.92 576.4,506.92C563.44,506.92 556.96,500.92 556.96,488.92C556.96,487.72 557.26,486.04 557.86,483.88C558.46,481.72 558.76,480.16 558.76,479.2C558.76,466.96 558.16,448.78 556.96,424.66C555.76,400.54 555.16,382.48 555.16,370.48C555.16,359.68 561.64,354.28 574.6,354.28C582.28,354.28 587.56,356.56 590.44,361.12C597.16,353.68 604.72,349.96 613.12,349.96C618.88,349.96 624.4,351.52 629.68,354.64C633.28,356.56 637.48,360.7 642.28,367.06C647.08,373.42 649.48,378.4 649.48,382Z" style="fill-rule:nonzero;"/>
            <path d="M710.68,367.24C710.68,371.56 709.72,377.68 707.8,385.6C705.88,393.52 704.92,399.64 704.92,403.96L704.92,478.12C704.92,482.68 706.24,489.88 708.88,499.72C705.28,505.24 701.32,508 697,508C681.88,508 673.6,500.44 672.16,485.32C669.76,457.24 668.56,436.12 668.56,421.96C668.56,398.2 669.52,378.28 671.44,362.2C671.2,361 671.08,359.8 671.08,358.6C671.08,354.28 674.44,352.12 681.16,352.12C687.16,352.12 693.16,353.32 699.16,355.72C706.84,358.36 710.68,362.2 710.68,367.24Z" style="fill-rule:nonzero;"/>
            <path d="M848.92,434.92C848.92,456.52 843.52,475 832.72,490.36C820.24,507.88 803.68,516.64 783.04,516.64C761.92,516.64 745.96,509.44 735.16,495.04C725.32,482.32 720.4,465.04 720.4,443.2C720.4,421.6 725.8,401.2 736.6,382C749.08,359.2 765.28,347.8 785.2,347.8C791.44,347.8 799.24,350.56 808.6,356.08C835.48,372.16 848.92,398.44 848.92,434.92ZM817.24,434.2C817.24,397.48 808.36,379.12 790.6,379.12C777.88,379.12 768.28,386.92 761.8,402.52C757,414.28 754.6,427.6 754.6,442.48C754.6,474.4 764.08,490.36 783.04,490.36C795.28,490.36 804.4,483.76 810.4,470.56C814.96,460.48 817.24,448.36 817.24,434.2Z" style="fill-rule:nonzero;"/>
            <path d="M964.12,382C964.12,383.68 963.88,386.32 963.4,389.92C958.36,397.12 953.08,400.72 947.56,400.72C943,400.72 938.92,398.08 935.32,392.8C934.84,382 931,376.6 923.8,376.6C919.48,376.6 914.2,388 907.96,410.8C905.08,420.88 903.64,434.92 903.64,452.92C903.64,469.96 904.48,480.28 906.16,483.88C908.08,488.44 909.04,491.56 909.04,493.24C909.04,497.32 907.18,500.62 903.46,503.14C899.74,505.66 895.6,506.92 891.04,506.92C878.08,506.92 871.6,500.92 871.6,488.92C871.6,487.72 871.9,486.04 872.5,483.88C873.1,481.72 873.4,480.16 873.4,479.2C873.4,466.96 872.8,448.78 871.6,424.66C870.4,400.54 869.8,382.48 869.8,370.48C869.8,359.68 876.28,354.28 889.24,354.28C896.92,354.28 902.2,356.56 905.08,361.12C911.8,353.68 919.36,349.96 927.76,349.96C933.52,349.96 939.04,351.52 944.32,354.64C947.92,356.56 952.12,360.7 956.92,367.06C961.72,373.42 964.12,378.4 964.12,382Z" style="fill-rule:nonzero;"/>
        </g>
        <g transform="matrix(1.30688,0,0,2.29782,-80.0037,-609.633)">
            <g>
                <path d="M1194.03,496.044C1198.24,492.904 1181.42,489 1174.55,489L668.455,489C661.581,489 648.973,494.651 645.85,498.514C642.983,502.061 661.581,503 668.455,503L1174.55,503C1181.42,503 1188.56,500.115 1194.03,496.044Z"/>
            </g>
        </g>
        <g transform="matrix(0.289539,0,0,0.289539,443.278,411.564)">
            <g>
                <g transform="matrix(0.866667,0,0,0.416807,-49.056,123.245)">
                    <path d="M1061,235.658C1061,218.444 1054.28,204.469 1046,204.469C1037.72,204.469 1031,218.444 1031,235.658L1031,461.81C1031,479.024 1037.72,493 1046,493C1054.28,493 1061,479.024 1061,461.81L1061,235.658Z"/>
                </g>
                <g transform="matrix(0.612826,-0.612826,0.195381,0.195381,120.139,826.927)">
                    <path d="M1061,251.517C1061,225.55 1054.28,204.469 1046,204.469C1037.72,204.469 1031,225.55 1031,251.517L1031,445.951C1031,471.918 1037.72,493 1046,493C1054.28,493 1061,471.918 1061,445.951L1061,251.517Z"/>
                </g>
                <g transform="matrix(0.612826,0.612826,-0.195381,0.195381,312.589,-455.104)">
                    <path d="M1061,251.517C1061,225.55 1054.28,204.469 1046,204.469C1037.72,204.469 1031,225.55 1031,251.517L1031,445.951C1031,471.918 1037.72,493 1046,493C1054.28,493 1061,471.918 1061,445.951L1061,251.517Z"/>
                </g>
                <g transform="matrix(0.707107,0.707107,-0.707107,0.707107,390.08,-552.091)">
                    <path d="M894.937,189.734C894.937,181.602 888.335,175 880.203,175L850.734,175C842.602,175 836,181.602 836,189.734L836,219.203C836,227.335 842.602,233.937 850.734,233.937L880.203,233.937C888.335,233.937 894.937,227.335 894.937,219.203L894.937,189.734Z"/>
                </g>
            </g>
            <g transform="matrix(0.5,0.866025,-0.866025,0.5,771.747,-541.097)">
                <g transform="matrix(0.866667,-4.81097e-17,-3.99274e-17,0.418976,-49.056,122.801)">
                    <path d="M1061,235.496C1061,218.372 1054.28,204.469 1046,204.469C1037.72,204.469 1031,218.372 1031,235.496L1031,461.972C1031,479.097 1037.72,493 1046,493C1054.28,493 1061,479.097 1061,461.972L1061,235.496Z"/>
                </g>
                <g transform="matrix(0.612826,-0.612826,0.195381,0.195381,120.139,826.927)">
                    <path d="M1061,251.517C1061,225.55 1054.28,204.469 1046,204.469C1037.72,204.469 1031,225.55 1031,251.517L1031,445.951C1031,471.918 1037.72,493 1046,493C1054.28,493 1061,471.918 1061,445.951L1061,251.517Z"/>
                </g>
                <g transform="matrix(0.612826,0.612826,-0.195381,0.195381,312.589,-455.104)">
                    <path d="M1061,251.517C1061,225.55 1054.28,204.469 1046,204.469C1037.72,204.469 1031,225.55 1031,251.517L1031,445.951C1031,471.918 1037.72,493 1046,493C1054.28,493 1061,471.918 1061,445.951L1061,251.517Z"/>
                </g>
                <g transform="matrix(0.707107,0.707107,-0.707107,0.707107,390.08,-552.091)">
                    <path d="M894.937,189.734C894.937,181.602 888.335,175 880.203,175L850.734,175C842.602,175 836,181.602 836,189.734L836,219.203C836,227.335 842.602,233.937 850.734,233.937L880.203,233.937C888.335,233.937 894.937,227.335 894.937,219.203L894.937,189.734Z"/>
                </g>
            </g>
            <g transform="matrix(-1,-1.22465e-16,1.22465e-16,-1,1714.86,793.794)">
                <g transform="matrix(0.866667,2.1365e-32,0,0.41844,-49.056,122.911)">
                    <path d="M1061,235.536C1061,218.389 1054.28,204.469 1046,204.469C1037.72,204.469 1031,218.389 1031,235.536L1031,461.932C1031,479.079 1037.72,493 1046,493C1054.28,493 1061,479.079 1061,461.932L1061,235.536Z"/>
                </g>
                <g transform="matrix(0.612826,-0.612826,0.195381,0.195381,120.139,826.927)">
                    <path d="M1061,251.517C1061,225.55 1054.28,204.469 1046,204.469C1037.72,204.469 1031,225.55 1031,251.517L1031,445.951C1031,471.918 1037.72,493 1046,493C1054.28,493 1061,471.918 1061,445.951L1061,251.517Z"/>
                </g>
                <g transform="matrix(0.612826,0.612826,-0.195381,0.195381,312.589,-455.104)">
                    <path d="M1061,251.517C1061,225.55 1054.28,204.469 1046,204.469C1037.72,204.469 1031,225.55 1031,251.517L1031,445.951C1031,471.918 1037.72,493 1046,493C1054.28,493 1061,471.918 1061,445.951L1061,251.517Z"/>
                </g>
                <g transform="matrix(0.707107,0.707107,-0.707107,0.707107,390.08,-552.091)">
                    <path d="M894.937,189.734C894.937,181.602 888.335,175 880.203,175L850.734,175C842.602,175 836,181.602 836,189.734L836,219.203C836,227.335 842.602,233.937 850.734,233.937L880.203,233.937C888.335,233.937 894.937,227.335 894.937,219.203L894.937,189.734Z"/>
                </g>
            </g>
            <g transform="matrix(-0.5,0.866025,-0.866025,-0.5,1629.22,-150.303)">
                <g transform="matrix(0.866667,7.31461e-17,0,0.416255,-49.056,123.358)">
                    <path d="M1061,235.699C1061,218.463 1054.28,204.469 1046,204.469C1037.72,204.469 1031,218.463 1031,235.699L1031,461.769C1031,479.006 1037.72,493 1046,493C1054.28,493 1061,479.006 1061,461.769L1061,235.699Z"/>
                </g>
                <g transform="matrix(0.612826,-0.612826,0.195381,0.195381,120.139,826.927)">
                    <path d="M1061,251.517C1061,225.55 1054.28,204.469 1046,204.469C1037.72,204.469 1031,225.55 1031,251.517L1031,445.951C1031,471.918 1037.72,493 1046,493C1054.28,493 1061,471.918 1061,445.951L1061,251.517Z"/>
                </g>
                <g transform="matrix(0.612826,0.612826,-0.195381,0.195381,312.589,-455.104)">
                    <path d="M1061,251.517C1061,225.55 1054.28,204.469 1046,204.469C1037.72,204.469 1031,225.55 1031,251.517L1031,445.951C1031,471.918 1037.72,493 1046,493C1054.28,493 1061,471.918 1061,445.951L1061,251.517Z"/>
                </g>
                <g transform="matrix(0.707107,0.707107,-0.707107,0.707107,390.08,-552.091)">
                    <path d="M894.937,189.734C894.937,181.602 888.335,175 880.203,175L850.734,175C842.602,175 836,181.602 836,189.734L836,219.203C836,227.335 842.602,233.937 850.734,233.937L880.203,233.937C888.335,233.937 894.937,227.335 894.937,219.203L894.937,189.734Z"/>
                </g>
            </g>
            <g transform="matrix(-0.5,-0.866025,0.866025,-0.5,943.974,1334.89)">
                <g transform="matrix(0.866667,0,-7.98548e-17,0.415712,-49.056,123.468)">
                    <path d="M1061,235.74C1061,218.481 1054.28,204.469 1046,204.469C1037.72,204.469 1031,218.481 1031,235.74L1031,461.728C1031,478.988 1037.72,493 1046,493C1054.28,493 1061,478.988 1061,461.728L1061,235.74Z"/>
                </g>
                <g transform="matrix(0.612826,-0.612826,0.195381,0.195381,120.139,826.927)">
                    <path d="M1061,251.517C1061,225.55 1054.28,204.469 1046,204.469C1037.72,204.469 1031,225.55 1031,251.517L1031,445.951C1031,471.918 1037.72,493 1046,493C1054.28,493 1061,471.918 1061,445.951L1061,251.517Z"/>
                </g>
                <g transform="matrix(0.612826,0.612826,-0.195381,0.195381,312.589,-455.104)">
                    <path d="M1061,251.517C1061,225.55 1054.28,204.469 1046,204.469C1037.72,204.469 1031,225.55 1031,251.517L1031,445.951C1031,471.918 1037.72,493 1046,493C1054.28,493 1061,471.918 1061,445.951L1061,251.517Z"/>
                </g>
                <g transform="matrix(0.707107,0.707107,-0.707107,0.707107,390.08,-552.091)">
                    <path d="M894.937,189.734C894.937,181.602 888.335,175 880.203,175L850.734,175C842.602,175 836,181.602 836,189.734L836,219.203C836,227.335 842.602,233.937 850.734,233.937L880.203,233.937C888.335,233.937 894.937,227.335 894.937,219.203L894.937,189.734Z"/>
                </g>
            </g>
            <g transform="matrix(0.5,-0.866025,0.866025,0.5,86.497,942.494)">
                <g transform="matrix(0.866667,2.39062e-16,-2.34636e-17,0.416155,-49.056,123.378)">
                    <path d="M1061,235.707C1061,218.466 1054.28,204.469 1046,204.469C1037.72,204.469 1031,218.466 1031,235.707L1031,461.762C1031,479.003 1037.72,493 1046,493C1054.28,493 1061,479.003 1061,461.762L1061,235.707Z"/>
                </g>
                <g transform="matrix(0.612826,-0.612826,0.195381,0.195381,120.139,826.927)">
                    <path d="M1061,251.517C1061,225.55 1054.28,204.469 1046,204.469C1037.72,204.469 1031,225.55 1031,251.517L1031,445.951C1031,471.918 1037.72,493 1046,493C1054.28,493 1061,471.918 1061,445.951L1061,251.517Z"/>
                </g>
                <g transform="matrix(0.612826,0.612826,-0.195381,0.195381,312.589,-455.104)">
                    <path d="M1061,251.517C1061,225.55 1054.28,204.469 1046,204.469C1037.72,204.469 1031,225.55 1031,251.517L1031,445.951C1031,471.918 1037.72,493 1046,493C1054.28,493 1061,471.918 1061,445.951L1061,251.517Z"/>
                </g>
                <g transform="matrix(0.707107,0.707107,-0.707107,0.707107,390.08,-552.091)">
                    <path d="M894.937,189.734C894.937,181.602 888.335,175 880.203,175L850.734,175C842.602,175 836,181.602 836,189.734L836,219.203C836,227.335 842.602,233.937 850.734,233.937L880.203,233.937C888.335,233.937 894.937,227.335 894.937,219.203L894.937,189.734Z"/>
                </g>
            </g>
        </g>
    </g>
</svg>
