<?xml version="1.0" encoding="UTF-8" standalone="no"?>
<!DOCTYPE svg PUBLIC "-//W3C//DTD SVG 1.1//EN" "http://www.w3.org/Graphics/SVG/1.1/DTD/svg11.dtd">
<svg width="100%" height="100%" viewBox="0 0 18 18" version="1.1" xmlns="http://www.w3.org/2000/svg" xmlns:xlink="http://www.w3.org/1999/xlink" xml:space="preserve" xmlns:serif="http://www.serif.com/" style="fill-rule:evenodd;clip-rule:evenodd;stroke-linejoin:round;stroke-miterlimit:2;">
    <path d="M16,0L2,0C0.9,0 0,0.9 0,2L0,16C0,17.101 0.9,18 2,18L16,18C17.1,18 18,17.101 18,16L18,2C18,0.9 17.1,0 16,0Z" style="fill:rgb(68,74,82);fill-rule:nonzero;"/>
    <g transform="matrix(0.25,0,0,0.25,6.21725e-15,6.88338e-15)">
        <path d="M62,62L51.316,62L51.316,43.802C51.316,38.813 49.42,36.025 45.471,36.025C41.175,36.025 38.93,38.926 38.93,43.802L38.93,62L28.633,62L28.633,27.333L38.93,27.333L38.93,32.003C38.93,32.003 42.026,26.274 49.383,26.274C56.736,26.274 62,30.764 62,40.051L62,62ZM16.349,22.794C12.842,22.794 10,19.93 10,16.397C10,12.864 12.842,10 16.349,10C19.857,10 22.697,12.864 22.697,16.397C22.697,19.93 19.857,22.794 16.349,22.794ZM11.033,62L21.769,62L21.769,27.333L11.033,27.333L11.033,62Z" style="fill:white;"/>
    </g>
</svg>
